<?xml version="1.0" encoding="utf-8"?>
<!DOCTYPE svg PUBLIC "-//W3C//DTD SVG 1.1//EN" "http://www.w3.org/Graphics/SVG/1.1/DTD/svg11.dtd">
<!-- Generated by geo2svg 2.3.2. https://d3js.org/d3-geo-projection/ -->
<svg version="1.1" xmlns="http://www.w3.org/2000/svg" xmlns:xlink="http://www.w3.org/1999/xlink" width="960" height="960" viewBox="0 0 960 960" fill="none" stroke="black">
  <path d="M909.273093,628.479773L903.01383,630.224808L898.559386,629.736436L895.650557,629.659011L888.95929,630.993099L887.701677,632.47608L885.263253,633.065699L881.682417,635.299105L874.856749,638.098306L872.091921,640.891552L871.179912,644.417355L869.615096,644.965284L868.472685,641.939764L868.175082,638.28889L867.176672,636.502166L862.856629,635.686228L860.274203,636.668927L860.168602,637.72905L855.886959,639.182252L854.341343,637.234723L850.136501,635.275282L846.498065,635.870857L844.155642,637.16921L842.97483,639.676579L841.611616,642.612763L839.115591,644.238682L833.374734,646.025407L831.233912,645.679973L826.337863,646.620982L824.744247,646.28746L823.534635,646.400619L822.094621,648.651892L821.384214,651.248598L820.0114,652.892384L817.092971,658.419318L813.080131,663.189872L808.520085,665.506658L800.724807,666.608472L799.236792,667.317206L796.299163,665.786578L793.860739,665.828269L787.822278,667.233825L785.105451,668.299904L782.887829,667.91278L779.402994,669.074151L775.591756,669.121797L770.878109,670.443973L768.190082,672.558264L764.705247,678.853489L761.575616,677.715941L760.298803,675.679076L756.98677,676.506925L756.564366,673.582652L757.562776,672.361724L759.405994,673.767281L761.642816,672.361724L762.055621,669.836487L764.158042,668.609603L765.329253,666.263038L765.434854,660.801617L768.430084,658.216823L768.842888,656.686196L768.545285,654.178826L765.828458,646.442309L765.95326,644.66154L767.326073,643.470391L767.518075,641.242941L769.159692,639.485996L767.758078,636.281803L765.607656,634.328318L766.289263,631.76139L771.646116,630.296277L773.172532,628.140296L772.702127,626.895544L770.503705,625.644837L768.96769,626.978925L765.96286,625.692483L765.473255,624.239281L768.650887,622.649096L771.070111,623.095777L770.878109,620.927885L767.566076,619.266231L763.255633,619.266231L766.634866,615.645137L767.402874,614.829199L773.066931,612.893581L773.172532,612.20867L773.287733,611.458246L772.778928,607.753771L768.209282,606.086161L766.807668,605.949179L766.356464,607.604877L763.678037,610.600618L760.03,615.520066L759.473195,615.061473L764.820448,607.616788L762.727627,606.604311L758.647586,602.566314L756.861969,602.697341L756.218762,603.906357L753.866739,601.929049L751.418714,602.01243L748.04908,599.582485L746.474665,600.416289L747.453875,604.079074L745.889059,603.811066L745.428254,604.204145L747.357874,607.765682L749.844298,609.89784L749.258693,611.803679L746.98347,611.047299L745.706657,611.553538L746.849068,613.852457L749.076291,615.317571L748.154682,615.960791L749.03789,619.242408L748.893889,621.309053L745.188252,616.681437L742.452225,615.383084L741.175412,613.149678L738.228182,614.459943L739.908199,619.462771L741.434614,621.499637L740.97381,622.315574L737.421774,619.397258L736.221762,620.493115L737.863379,624.304794L736.346563,624.007007L737.469775,626.347616L737.767378,629.337401L736.336963,629.402914L736.404164,630.999055L734.743347,631.886461L734.484145,633.554071L732.506525,630.105693L728.714487,629.218286L727.543275,630.040179L723.847238,627.366049L720.468005,628.640579L720.0168,630.742958L725.00885,633.548115L726.199262,636.925024L723.501635,639.390704L721.514415,639.908854L720.333603,638.455651L718.807188,639.474084L716.791168,639.515774L714.679147,638.092351L710.263103,639.664668L711.472715,640.480605L711.866319,643.30363L712.941529,644.637717L713.392734,647.252291L714.98635,650.6292L712.797528,650.635156L711.923919,654.696976L711.04071,654.155003L710.099901,650.236121L709.187892,649.175997L709.370294,646.93068L707.776678,643.053489L707.920679,640.182818L706.768668,638.336536L702.333423,636.508122L700.893409,639.664668L697.725377,639.855252L695.901359,641.403746L696.304563,641.957631L698.00378,644.286328L699.808598,650.944855L698.886989,651.331978L696.534965,649.926422L694.864549,645.465566L693.597336,643.50017L693.357334,643.184515L692.560526,643.327453L691.274113,643.553771L691.226112,645.495345L692.090121,650.444572L690.390904,655.381887L689.258093,656.412231L687.520475,655.101967L686.541265,655.548648L686.752468,657.75823L689.296493,660.777794L690.170102,666.685896L691.792518,669.902L688.230882,669.776929L687.02127,670.694115L686.589266,673.475449L684.717247,674.273519L685.331653,677.656384L684.256443,678.609304L682.98923,673.511183L681.587616,672.808405L677.949179,674.273519L676.739567,676.822579L677.565176,679.246569L676.921969,680.961824L671.747517,679.883834L667.427474,680.973736L666.649866,682.546053L663.097831,684.487627L662.339423,686.947351L663.606636,688.871057L662.329823,690.913879L661.571416,687.53697L661.619416,685.0296L659.593796,683.195229L653.660937,680.96778L649.648096,680.818886L647.670477,682.641345L643.97444,683.260743L640.288003,685.059379L639.798398,676.215093L638.675187,664.381022L637.321573,650.492218L635.449554,647.067663L634.921549,646.483999L634.95035,639.742093L636.236762,638.128085L636.98557,626.746651L625.398254,623.703264L625.427054,622.690786L623.190232,622.101167L620.147001,621.362655L618.658987,618.938665L616.758168,615.835721L612.073321,608.218319L606.831668,600.213794L602.521225,593.632692L587.756278,585.276778L584.684247,583.490054L583.081031,578.457447L581.228212,576.402714L581.660217,573.240211L579.509795,568.165914L580.124201,566.403013L582.159422,564.276811L582.725827,563.705059L580.853809,560.357929L583.052231,554.056747L581.228212,547.10639L581.794618,541.05535L581.516215,541.09704L570.255303,542.925455L570.255303,535.141292L570.322503,509.829363L570.341703,497.631992L549.768698,498.007204L538.99739,498.203744L531.125311,499.007769L521.611616,499.257911L514.104341,499.448495L490.0273,500.192963L467.198272,500.901697L458.289383,501.509184L457.905379,495.910781L456.820568,495.898869L440.404404,495.702329L435.738757,495.648728L406.295263,494.701764L387.421474,494.546914L377.696577,494.022808L368.04848,493.498703L331.856119,492.968641L318.291183,492.879305L306.03186,492.629163L281.570816,492.140792L262.812228,492.039544L261.890619,492.152704L256.917769,492.772101L253.346533,493.212827L250.716107,493.540393L248.277683,495.50579L241.682417,495.398586L241.413614,493.302163L239.00399,493.153269L231.97672,492.724455L217.816578,491.140226L212.930129,491.20574L201.746017,491.354633L201.294813,492.396889L202.850029,493.51657L200.699607,498.281168L197.809978,503.486492L185.416254,505.285128L186.270663,491.241474L180.549005,491.152138L172.849728,490.806705L136.388564,490.467227L121.98842,490.026502L90.087301,488.805573L56.822968,487.441707L20.198602,486.155265L19.142591,486.179088L3.02403,486.482832L0,473.267027L20.669007,397.31933L26.141061,377.1353L41.731617,319.632554L53.942939,274.9704L63.01503,241.701592L65.213452,233.63751L92.400924,234.370067L123.265233,235.203871L130.129301,235.3885L187.461075,237.056109L223.547835,238.414019L265.865059,240.016116L293.95494,241.117929L328.553686,242.535397L371.053311,243.970732L383.543035,244.482927L409.386494,245.554961L431.610716,246.239872L465.451055,247.484624L497.793778,248.497101L527.131671,249.432153L549.874299,250.16471L556.690367,250.385073L573.442534,250.927046L578.280983,251.081895L584.03144,251.427329L588.572286,251.463063L593.727537,251.504753L595.167552,249.670383L597.817178,246.29943L600.774008,240.957124L604.191642,237.02633L606.783668,234.858438L612.572526,233.363545L615.327753,234.173527L620.646206,235.739889L623.862239,236.686853L623.574236,231.797184L622.710227,217.288982L623.718237,216.008496L628.211082,210.70788L632.95353,207.998015L637.091171,206.068353L655.072151,211.488083L655.408154,211.589331L658.249782,201.78617L660.717007,196.044829L664.249842,192.280796L671.373114,190.791859L679.369994,189.12425L681.606816,188.653746L691.245312,182.930272L695.546155,182.227494L698.694987,182.239405L703.159032,183.67474L713.219932,191.601841L719.882399,187.843764L721.620016,187.450685L721.504815,195.377785L722.858429,205.526379L723.424834,207.021272L724.058441,209.665624L724.855249,220.534864L727.591276,230.993158L729.424894,236.198481L733.696937,246.370899L734.176942,248.645994L732.746527,250.158754L732.669727,253.595221L735.799358,255.643998L738.928989,256.126414L741.108211,257.228227L746.359464,263.094639L751.514715,265.637743L755.642756,266.334566L757.889179,264.25601L758.839588,263.06486L759.857199,261.742684L761.98842,260.390729L762.852429,258.574226L768.218882,254.280132L769.102091,254.321822L771.828518,253.071115L773.652537,255.185406L774.343743,258.907748L774.190142,263.011258L773.777338,264.678868L778.481385,265.357823L781.102211,264.875407L780.670207,267.996219L782.110221,269.187369L781.236612,271.122987L782.177422,272.355827L781.495815,274.100861L778.385384,274.148507L774.948549,276.429558L775.063751,277.388434L771.252513,280.747476L771.223712,283.999314L770.330903,286.780648L767.527675,289.70492L767.00927,291.402309L765.214052,293.337927L762.487625,293.993059L762.180422,292.664927L764.599646,287.501294L762.890829,284.213721L760.942009,283.814686L759.309993,284.124385L759.377194,285.655012L757.274773,288.269585L758.225182,289.246328L756.276363,291.985972L754.97075,292.617281L753.453935,295.100828L748.96109,296.959021L745.111451,297.244897L743.143431,295.297368L742.308223,296.041836L737.709777,297.626065L735.98176,300.824302L732.295323,301.670018L728.00408,299.865426L725.162452,300.854081L722.128821,303.546079L720.0072,304.528777L716.301563,304.725317L711.088711,306.232121L709.927099,307.024235L708.00708,305.666325L705.914259,307.49474L704.704647,309.674543L704.474245,310.943118L705.088651,311.574427L708.131881,310.067623L709.03429,311.109878L708.467885,313.545779L705.453455,314.719062L704.330243,316.362848L703.264633,318.816616L703.091831,320.138792L705.146251,321.335898L706.509465,320.95473L708.352684,317.714803L710.935109,315.451619L714.02634,316.910777L714.96715,316.17822L714.890349,320.073279L712.835928,322.652118L712.096721,324.415019L711.95272,325.808664L713.546335,325.49301L717.194372,321.133402L717.914379,321.961251L716.608766,326.72585L715.101551,327.780017L713.546335,326.362549L709.917499,327.398849L704.887049,330.984209L703.063031,334.105021L702.851829,336.034684L700.97021,337.487886L699.050191,336.278869L697.485375,336.779152L697.264573,335.308082L693.539735,335.379551L692.253323,337.148408L690.054901,338.607567L690.0069,339.060203L689.584496,345.057642L691.686917,345.694907L692.714127,348.607267L695.901359,349.554231L698.666187,352.32961L697.917379,353.729211L694.98935,352.984742L692.176522,353.359954L689.680497,353.0443L689.517295,348.565577L688.490085,345.945048L688.422884,340.555096L688.182882,339.489017L688.096481,339.197186L687.386074,339.19123L686.291663,339.727247L683.219632,342.842103L683.171632,343.705687L683.152432,344.170235L679.187592,348.142719L676.98917,351.299265L675.145951,357.034651L675.913959,358.74395L676.624366,358.874977L677.872379,362.644965L681.558816,363.627664L679.994,365.045132L679.9556,366.444732L681.731617,371.834684L680.915609,373.996621L681.827618,374.94954L684.179642,375.807168L685.216452,379.952369L683.334833,379.035183L680.656407,375.848858L678.429184,374.580284L676.432364,374.758956L673.725137,376.581415L671.881919,377.844034L670.518705,379.505688L669.942699,380.952934L669.750698,381.459173L668.416284,384.836082L667.360274,385.008799L664.557046,385.479303L663.395434,385.896205L661.04341,387.510213L663.702637,389.743618L662.493025,392.524952L661.97462,393.77566L661.533015,394.841738L666.121861,395.347977L667.533075,396.56295L668.541085,393.489784L668.512285,392.900165L667.849878,391.143219L670.777908,388.272548L673.197132,388.212991L671.03711,389.99376L670.067501,392.614289L670.345903,393.799483L672.371524,395.002544L675.174752,392.989501L675.875559,394.460571L671.478715,396.181782L671.670717,397.617117L667.129871,400.845132L669.174692,403.572865L670.288303,404.257776L673.667537,406.336332L674.550746,407.706154L676.269163,408.325552L679.763598,409.30825L681.376414,407.438145L684.362044,406.491181L684.928449,405.037979L684.03564,403.126184L685.00525,402.864131L686.310863,405.865828L685.00525,411.869222L684.96685,413.084194L685.312453,414.471884L687.866079,413.262867L689.459695,411.220045L692.070921,410.648293L692.781328,409.189135L692.378124,406.854482L694.864549,405.853916L696.909369,407.396455L697.216572,408.688852L697.418174,409.564347L701.440614,409.498834L700.98941,412.178921L702.97663,414.727981L705.386254,414.2813L705.904659,411.541656L702.832628,405.657377L701.335013,404.162484L698.253383,402.870087L698.95419,402.107751L701.719017,402.971334L703.543035,403.954033L705.261453,403.763449L703.427834,399.314505L702.842228,396.753534L698.378184,395.28842L696.659767,396.241339L695.258153,395.008499L693.155732,395.032322L693.02133,394.073447L697.408574,393.043103L700.547805,393.751837L702.266223,392.102094L704.080641,392.131873L704.474245,395.663632L705.914259,398.4807L707.248672,401.095274L710.877509,405.776492L712.557526,407.402411L717.923979,407.71211L719.642396,408.248127L723.108031,409.338029L729.280893,412.601779L731.229712,414.489751L732.612126,414.400415L733.245732,412.494575L735.280953,412.303991L736.240962,413.900132L735.703357,416.175227L736.797768,417.19366L736.941769,419.444933L740.407404,424.233354L742.577026,425.025469L744.881049,428.170104L747.098671,429.248094L748.221882,428.878838L749.469895,431.273048L748.058681,437.61592L749.114691,440.605705L749.239492,443.42873L751.389914,445.471551L757.01557,456.364614L758.580386,458.806471L762.746827,465.292281L769.121291,472.409399L769.572496,474.958459L768.094081,476.143653L767.095671,478.055448L766.97087,479.70519L768.305283,486.071885L771.617316,491.408235L774.449344,494.642206L777.617376,499.514008L780.459005,502.777758L779.162992,503.641341L776.129361,502.033289L773.844538,503.647297L771.329313,506.994427L769.399694,506.619215L768.842888,502.277475L770.129301,499.424672L770.657307,502.622908L771.886119,503.891483L776.081361,500.395459L775.716557,499.537831L775.121351,498.09654L767.99808,487.852654L766.385264,487.733539L764.858849,489.240343L762.631626,489.555998L761.287613,491.021112L760.673207,496.696939L761.786818,499.972601L760.865209,501.610431L758.762788,502.426369L756.612366,499.811795L754.202742,499.603344L749.805898,501.6819L750.122701,503.260173L753.069931,505.046898L753.348333,509.072983L754.836348,510.526186L757.850779,511.675645L760.596406,515.73151L763.98524,519.626569L767.345273,522.70569L771.108511,522.955832L770.177302,521.246532L767.604476,515.951872L765.598056,512.837016L765.646056,511.151539L766.260463,510.847796L768.04608,513.58744L771.425314,521.365647L773.585336,524.879538L775.466955,525.987308L777.703777,525.808635L780.411004,523.259575L784.299043,522.449593L790.414304,528.369607L794.916749,531.008003L796.203162,530.829331L796.548765,532.925754L794.667147,533.759559L793.99514,536.177592L794.388744,537.898803L798.103981,544.235719L798.535985,552.907288L799.851199,555.343189L797.815978,562.192299L795.425554,565.229731L795.127951,567.683499L795.703957,570.810266L796.711967,572.573168L797.95038,574.752971L801.492815,579.064933L808.174482,584.305991L808.308883,585.872353L813.224132,589.481536L814.337743,590.303429L830.177902,596.473584L837.96358,598.051857L840.142801,598.492583L862.770228,600.094679L867.243872,604.013561L870.095101,607.354736L870.767108,607.384514L876.613566,603.078509L877.871179,600.910616L882.853629,596.979823L890.0441,593.745852L892.328923,594.037683L900.594606,591.947216L902.841028,590.839447L908.04428,591.274216L915.03315,588.510749L918.537185,587.64121L921.369214,586.21183L923.548435,586.241609L927.96448,584.073717L934.617346,580.726587L938.399784,576.307422L939.762998,573.412928L939.455795,560.983282L938.380584,548.89907L939.071791,547.38631L940.742207,545.182683L940.0126,543.96771L935.836558,543.526985L934.271743,540.9005L937.151772,540.036917L937.209372,538.321661L933.945339,536.260973L932.130921,533.110382L933.446134,529.90619L928.732487,529.644137L926.054061,530.412428L924.268443,532.008569L926.265263,532.925754L923.183632,536.272884L923.174032,540.602713L922.300423,541.823641L923.00123,545.391134L922.290823,545.909284L921.206012,540.555067L920.946809,526.547148L920.082801,524.84976L920.073201,519.626569L920.0348,509.650691L918.325983,500.073848L916.770768,495.434321L915.157952,492.56365L911.817118,488.680503L907.804278,485.762186L901.257013,482.587772L899.116191,481.884994L895.266553,482.849825L892.933729,484.046931L890.696907,486.202911L888.508085,491.277209L885.580056,492.617252L889.218492,496.059674L894.940149,494.296773L892.636126,496.530178L890.725707,497.232957L888.152882,496.482532L884.821648,493.32003L882.143221,487.864565L879.483995,484.946249L874.99115,481.408534L876.949569,478.103094L880.290403,476.03645L885.311253,474.8453L890.0345,474.684495L897.848978,476.024538L899.452195,476.566511L909.695497,479.997022L918.642786,484.684196L925.103651,489.847829L931.814118,498.019115L937.602976,508.12602L941.567816,516.410465L944.524645,522.598487L949.219092,536.260973L952.204722,547.719832L954.124741,555.07518L955.459155,560.203079L956.524765,568.279073L957.379174,572.745884L959.932799,597.605176L959.9712,604.347083L960,609.385646L959.452795,615.317571L958.559986,620.100036L955.891159,625.06713L955.823958,628.384481L954.863949,629.849595L953.404734,634.763087L952.377524,637.627802L952.118321,641.010667L949.593496,644.024275L946.483065,644.590072L945.302253,645.340496L943.900639,650.30759L943.651037,654.964984L943.95824,664.553739L943.430234,665.905693L941.414214,668.984815L938.399784,669.121797L937.151772,665.864003L938.486185,663.3745L941.107011,660.539564L942.441424,656.811266L943.132631,652.356367L942.883029,647.121264L943.583836,645.638283L944.764648,643.607373L945.081451,640.504428L945.532655,639.664668L946.703867,637.514643L947.251073,634.370008L948.710287,632.005576L947.308673,629.033658L944.735847,627.425606L941.769418,624.209502L938.918189,622.631229L936.98857,622.488291L932.927729,624.007007L930.767708,624.096343L924.143641,625.192201L923.174032,625.942625L920.418804,625.364917L917.577176,625.692483ZM793.783938,713.926889L796.433564,716.624843L799.04479,718.101868L801.99202,718.578328L804.833648,719.840946L806.072061,722.783086L806.360064,725.147518L809.192092,725.778827L810.862509,724.825907L814.299343,721.282237L813.944139,716.797559L816.411364,713.081173L820.0018,712.521332L821.125011,721.186945L820.318603,726.922331L820.587406,736.493218L819.512195,737.857084L816.555366,738.696844L811.419314,738.369278L808.04008,738.684933L785.479855,737.791571L778.078181,738.178694L766.807668,738.875517L755.460355,739.834392L750.439504,740.751577L744.161042,742.716974L740.321003,744.956335L740.100201,746.081972L735.856959,748.970509L734.829748,751.382587L734.656947,754.330683L732.784928,755.301469L725.700057,750.578561L721.053611,745.933078L715.859959,738.792136L717.194372,736.582554L720.928809,736.517041L722.95443,735.742793L726.180062,736.439616L730.740107,738.571774L732.96733,738.089358L734.599346,736.636156L737.344973,731.740531L742.231422,726.08257L743.153032,722.955803L744.525845,720.716441L746.541865,720.305495L747.789878,718.256717L749.738697,716.761825L749.9883,714.397393L751.313113,713.063305L752.820328,707.76269L755.777158,706.750212L756.593166,705.142161L760.625206,704.772904L762.218822,701.652092L762.439624,699.817722L764.849248,698.173935L768.583686,697.637918L774.526145,693.242576L778.942189,690.455286L780.305403,690.896012L781.01581,695.344955L779.930999,697.953573L780.123001,700.121465L782.03342,699.930881L783.03183,698.459811L784.270243,698.20967L786.631866,695.511716L788.647886,694.451593L789.742297,695.202017L792.420724,700.985049L792.507125,704.409604L791.806318,708.88237ZM915.407554,756.486663L918.786788,755.974469L924.01884,752.538002L928.434884,747.922298L932.390124,741.603249L934.242942,733.997759L934.348543,731.144956L931.506915,727.434525L928.569286,725.790739L927.638076,722.890289L929.337293,723.747917L935.327753,731.002018L951.446314,763.240481L951.475115,768.302867L950.419104,771.572573L947.510275,774.729119L940.367804,777.087595L936.710167,777.784418L930.882909,776.545622L926.534065,775.622481L918.402784,775.354473L913.842738,776.861277L909.436294,776.283569L897.090571,771.608307L895.112951,770.840016L881.442414,763.847968L877.199172,760.95943L878.02478,760.768846L883.132031,762.936738L884.02484,764.342295L886.693667,764.020684L888.805688,762.680641L889.372094,760.453191L888.287283,758.988077L885.167252,759.6849L887.394474,757.010769L890.648906,757.606344L907.852279,757.785016ZM866.437464,751.900737L870.277503,751.56126L874.674347,753.443276L876.488765,757.141796L875.701557,759.506228L874.376744,759.702767L873.071131,758.136406L868.760688,755.015594ZM857.941379,742.776532L859.189392,741.930815L862.482225,742.157134L862.799028,743.628204L858.469385,744.086796ZM693.107731,387.313673L692.915729,387.927115L692.656527,389.654282L690.851709,387.790133L689.814898,386.831257L688.04848,386.164214L690.419704,385.884294L690.554106,385.771134L691.274113,383.299499L693.405334,386.330975ZM683.862839,391.679236L686.426064,391.572033L684.870849,392.787005ZM678.678787,391.441006L680.560406,390.011627L681.328413,387.599549L684.083641,384.41918L685.274053,384.794392L683.584436,386.992063L681.808418,391.018148L678.726787,392.185475ZM675.529955,385.634152L677.161972,386.051055L676.461165,389.106353L675.635556,388.933637ZM716.618366,647.413096L717.885579,647.60368L717.664777,645.977761L719.891999,648.824608L720.650407,652.731579L720.381604,654.464702L718.192782,653.553472L715.946359,649.580988ZM725.661657,304.903989L728.04248,305.672281L727.072871,306.404838ZM785.182252,273.73756L786.574266,272.367738L786.420664,274.309312ZM781.543815,264.708646L783.550236,264.178585L782.590226,265.560318ZM685.744457,399.624204L688.269283,398.724886L689.862899,397.16448L689.9781,395.139526L691.562116,394.6988L692.291723,396.187737L689.9685,398.826134L689.430894,401.369238L688.02928,400.42823L686.291663,400.994026ZM724.356044,698.977961L725.565656,698.721864L725.460055,696.720733L726.698467,695.315176L728.282483,695.14246L729.741697,692.492152L732.832928,692.349214L734.839348,688.519668L738.352984,687.364253L740.426604,684.189839L742.98983,682.623478L744.98665,683.010601L750.333903,677.376464L753.549935,676.66773L753.223532,679.282303L756.477965,679.723028L758.897189,677.94226L759.857199,679.723028L758.01398,681.545487L755.786758,682.528186L754.759548,681.700337L751.188312,683.612132L751.860319,685.291653L749.786698,687.501235L743.853839,688.841279L740.417004,692.093117L737.863379,691.646436L736.720967,693.814328L738.141781,695.910751L736.682567,698.066732L734.868149,699.293616L732.612126,699.299572L728.829688,703.283967L726.256863,703.414994L724.864849,701.908189ZM717.664777,770.107459L720.98641,769.899008L723.050431,768.195664L723.684037,769.672689L725.834458,770.494582L725.124051,773.686863L719.411994,772.680342ZM715.427954,701.014827L717.539975,699.198324L720.736807,699.001784L724.02964,702.223844L723.540035,704.3024L722.378424,703.498374L720.122401,703.718737L717.98158,705.160028L716.368764,704.915842L715.111151,702.354871ZM698.157382,710.002051L699.165392,707.60784L704.215042,708.28084L704.723847,706.345222L709.178292,704.713347L710.944709,701.955835L711.607116,702.545454L711.290313,705.410169L713.229532,708.179592L709.456695,711.300404L707.162272,712.027005L702.285423,711.836421L698.934989,712.30097ZM692.627726,701.425774L693.894939,700.413297L695.373354,701.675915L693.760538,703.694914ZM686.253263,714.284234L687.827678,714.593933L688.413284,712.152076L690.822908,710.960926L692.070921,708.548848L694.144541,710.895413L697.264573,711.723262L695.738157,712.485598L693.174932,711.895979L691.466115,714.719003L686.358864,716.696312ZM729.261693,310.895472L731.01851,311.002675L729.549695,312.146179Z"></path>
</svg>
